<svg xmlns="http://www.w3.org/2000/svg" width="1280" height="320" viewBox="0 0 1280 320" role="img" aria-label="autoscout24-mcp banner">
  <defs>
    <linearGradient id="bg" x1="0" y1="0" x2="1" y2="1">
      <stop offset="0" stop-color="#0b1220"/>
      <stop offset="1" stop-color="#12233f"/>
    </linearGradient>
    <linearGradient id="accent" x1="0" y1="0" x2="1" y2="0">
      <stop offset="0" stop-color="#ffb400"/>
      <stop offset="1" stop-color="#ff7a00"/>
    </linearGradient>
  </defs>
  <rect width="1280" height="320" fill="url(#bg)"/>
  <g stroke="#22406b" stroke-width="1" opacity="0.35">
    <path d="M0 260 H1280"/>
    <path d="M0 285 H1280"/>
  </g>
  <!-- car silhouette -->
  <g transform="translate(980,40)" fill="none" stroke="url(#accent)" stroke-width="6" stroke-linecap="round" stroke-linejoin="round">
    <path d="M0 70 h20 a30 30 0 0 1 60 0 h110 a30 30 0 0 1 60 0 h20 v-28 c0-10-8-18-18-18 l-52-8 -38-34 a20 20 0 0 0 -14-6 h-90 c-8 0-15 4-19 11 l-22 37 -10 8 c-5 4-7 9-7 15 z"/>
    <circle cx="50" cy="70" r="18"/>
    <circle cx="220" cy="70" r="18"/>
  </g>
  <text x="80" y="150" font-family="ui-monospace, SFMono-Regular, Menlo, Consolas, monospace" font-size="54" font-weight="700" fill="#e8eef7">autoscout24-mcp</text>
  <text x="80" y="200" font-family="ui-monospace, SFMono-Regular, Menlo, Consolas, monospace" font-size="24" fill="#8fa5c4">MCP server for AutoScout24 &#183; car search for LLMs &#183; written in Go</text>
  <rect x="80" y="228" width="240" height="6" rx="3" fill="url(#accent)"/>
</svg>
